<svg xmlns="http://www.w3.org/2000/svg" xmlns:xlink="http://www.w3.org/1999/xlink" version="1.1" width="453px" height="162px" viewBox="-0.5 -0.5 453 162"><defs><clipPath id="mx-clip-20-47-152-26-0"><rect x="20" y="47" width="152" height="26"/></clipPath><clipPath id="mx-clip-20-81-152-26-0"><rect x="20" y="81" width="152" height="26"/></clipPath><clipPath id="mx-clip-280-87-152-26-0"><rect x="280" y="87" width="152" height="26"/></clipPath><clipPath id="mx-clip-280-121-152-26-0"><rect x="280" y="121" width="152" height="26"/></clipPath></defs><g><path d="M 16 42 L 16 16 L 176 16 L 176 42" fill="#ffffff" stroke="#000000" stroke-miterlimit="10" pointer-events="all"/><path d="M 16 42 L 16 102 L 176 102 L 176 42" fill="none" stroke="#000000" stroke-miterlimit="10" pointer-events="none"/><path d="M 16 42 L 176 42" fill="none" stroke="#000000" stroke-miterlimit="10" pointer-events="none"/><g fill="#000000" font-family="Helvetica" font-weight="bold" text-anchor="middle" font-size="12px"><text x="95.5" y="33.5">～～～～～～～～～～～～</text></g><g fill="#000000" font-family="Helvetica" font-weight="bold" clip-path="url(#mx-clip-20-47-152-26-0)" text-anchor="middle" font-size="15px"><text x="95.5" y="62.5">vptr</text></g><path d="M 16 72 L 176 72" fill="none" stroke="#000000" stroke-miterlimit="10" pointer-events="none"/><g fill="#000000" font-family="Helvetica" clip-path="url(#mx-clip-20-81-152-26-0)" text-anchor="middle" font-size="15px"><text x="95.5" y="96.5">data members</text></g><g transform="translate(-0.5 -0.5)"><foreignObject style="overflow: visible; text-align: left;" pointer-events="none" width="100%" height="100%"><div xmlns="http://www.w3.org/1999/xhtml" style="display: flex; align-items: unsafe center; justify-content: unsafe center; width: 88px; height: 1px; padding-top: 126px; margin-left: 52px;"><div style="box-sizing: border-box; font-size: 0; text-align: center; "><div style="display: inline-block; font-size: 12px; font-family: Helvetica; color: #000000; line-height: 1.2; pointer-events: none; white-space: normal; word-wrap: normal; ">Base b;</div></div></div></foreignObject></g><path d="M 276 82 L 276 56 L 436 56 L 436 82" fill="#ffffff" stroke="#000000" stroke-miterlimit="10" pointer-events="none"/><path d="M 276 82 L 276 142 L 436 142 L 436 82" fill="none" stroke="#000000" stroke-miterlimit="10" pointer-events="none"/><path d="M 276 82 L 436 82" fill="none" stroke="#000000" stroke-miterlimit="10" pointer-events="none"/><g fill="#000000" font-family="Helvetica" font-weight="bold" text-anchor="middle" font-size="12px"><text x="355.5" y="73.5">Base::a()</text></g><g fill="#000000" font-family="Helvetica" font-weight="bold" clip-path="url(#mx-clip-280-87-152-26-0)" text-anchor="middle" font-size="12px"><text x="355.5" y="99.5">Base::b()</text></g><path d="M 276 112 L 436 112" fill="none" stroke="#000000" stroke-miterlimit="10" pointer-events="none"/><g fill="#000000" font-family="Helvetica" font-weight="bold" clip-path="url(#mx-clip-280-121-152-26-0)" text-anchor="middle" font-size="12px"><text x="355.5" y="133.5">Base::c()</text></g><path d="M 176 55 L 269.63 55" fill="none" stroke="#000000" stroke-miterlimit="10" pointer-events="none"/><path d="M 274.88 55 L 267.88 58.5 L 269.63 55 L 267.88 51.5 Z" fill="#000000" stroke="#000000" stroke-miterlimit="10" pointer-events="none"/></g></svg>