<svg xmlns="http://www.w3.org/2000/svg" xmlns:xlink="http://www.w3.org/1999/xlink" version="1.1" width="493px" height="349px" viewBox="-0.5 -0.5 493 349"><defs><clipPath id="mx-clip-166-277-152-26-0"><rect x="166" y="277" width="152" height="26"/></clipPath><clipPath id="mx-clip-166-303-152-26-0"><rect x="166" y="303" width="152" height="26"/></clipPath><clipPath id="mx-clip-20-47-132-26-0"><rect x="20" y="47" width="132" height="26"/></clipPath><clipPath id="mx-clip-20-73-132-26-0"><rect x="20" y="73" width="132" height="26"/></clipPath><clipPath id="mx-clip-20-99-132-26-0"><rect x="20" y="99" width="132" height="26"/></clipPath><clipPath id="mx-clip-180-47-132-26-0"><rect x="180" y="47" width="132" height="26"/></clipPath><clipPath id="mx-clip-180-73-132-26-0"><rect x="180" y="73" width="132" height="26"/></clipPath><clipPath id="mx-clip-180-99-132-26-0"><rect x="180" y="99" width="132" height="26"/></clipPath><clipPath id="mx-clip-340-47-132-26-0"><rect x="340" y="47" width="132" height="26"/></clipPath><clipPath id="mx-clip-340-73-132-26-0"><rect x="340" y="73" width="132" height="26"/></clipPath><clipPath id="mx-clip-340-99-132-26-0"><rect x="340" y="99" width="132" height="26"/></clipPath></defs><g><path d="M 202 246 L 202 183 L 129 183 L 128.98 127.36" fill="none" stroke="#000000" stroke-miterlimit="10" pointer-events="stroke"/><path d="M 128.98 122.11 L 132.48 129.1 L 128.98 127.36 L 125.48 129.11 Z" fill="#000000" stroke="#000000" stroke-miterlimit="10" pointer-events="all"/><path d="M 242 246 L 242 183 L 241.9 183 L 241.94 125.38" fill="none" stroke="#000000" stroke-miterlimit="10" pointer-events="stroke"/><path d="M 241.94 120.13 L 245.43 127.13 L 241.94 125.38 L 238.43 127.13 Z" fill="#000000" stroke="#000000" stroke-miterlimit="10" pointer-events="all"/><path d="M 282 246 L 282 183 L 369 183 L 369.04 125.38" fill="none" stroke="#000000" stroke-miterlimit="10" pointer-events="stroke"/><path d="M 369.04 120.13 L 372.53 127.13 L 369.04 125.38 L 365.53 127.13 Z" fill="#000000" stroke="#000000" stroke-miterlimit="10" pointer-events="all"/><path d="M 162 272 L 162 246 L 322 246 L 322 272" fill="#ffffff" stroke="#000000" stroke-miterlimit="10" pointer-events="all"/><path d="M 162 272 L 162 332 L 322 332 L 322 272" fill="none" stroke="#000000" stroke-miterlimit="10" pointer-events="none"/><path d="M 162 272 L 322 272" fill="none" stroke="#000000" stroke-miterlimit="10" pointer-events="none"/><g fill="#000000" font-family="Helvetica" font-weight="bold" text-anchor="middle" font-size="12px"><text x="241.5" y="263.5">Derived</text></g><rect x="162" y="272" width="160" height="26" fill="none" stroke="#000000" pointer-events="none"/><g fill="#000000" font-family="Helvetica" clip-path="url(#mx-clip-166-277-152-26-0)" font-size="12px"><text x="167.5" y="289.5">+ a(): void</text></g><g fill="#000000" font-family="Helvetica" clip-path="url(#mx-clip-166-303-152-26-0)" font-size="12px"><text x="167.5" y="315.5">+ d(): void</text></g><path d="M 16 42 L 16 16 L 156 16 L 156 42" fill="none" stroke="#000000" stroke-miterlimit="10" pointer-events="none"/><path d="M 16 42 L 16 120 L 156 120 L 156 42" fill="none" stroke="#000000" stroke-miterlimit="10" pointer-events="none"/><path d="M 16 42 L 156 42" fill="none" stroke="#000000" stroke-miterlimit="10" pointer-events="none"/><g fill="#000000" font-family="Helvetica" text-anchor="middle" font-size="12px"><text x="85.5" y="33.5">Base1</text></g><g fill="#000000" font-family="Helvetica" clip-path="url(#mx-clip-20-47-132-26-0)" font-size="12px"><text x="21.5" y="59.5">+ a(): void</text></g><g fill="#000000" font-family="Helvetica" clip-path="url(#mx-clip-20-73-132-26-0)" font-size="12px"><text x="21.5" y="85.5">+ b(): void</text></g><g fill="#000000" font-family="Helvetica" clip-path="url(#mx-clip-20-99-132-26-0)" font-size="12px"><text x="21.5" y="111.5">+ c(): void</text></g><path d="M 176 42 L 176 16 L 316 16 L 316 42" fill="none" stroke="#000000" stroke-miterlimit="10" pointer-events="none"/><path d="M 176 42 L 176 120 L 316 120 L 316 42" fill="none" stroke="#000000" stroke-miterlimit="10" pointer-events="none"/><path d="M 176 42 L 316 42" fill="none" stroke="#000000" stroke-miterlimit="10" pointer-events="none"/><g fill="#000000" font-family="Helvetica" text-anchor="middle" font-size="12px"><text x="245.5" y="33.5">Base2</text></g><g fill="#000000" font-family="Helvetica" clip-path="url(#mx-clip-180-47-132-26-0)" font-size="12px"><text x="181.5" y="59.5">+ a(): void</text></g><g fill="#000000" font-family="Helvetica" clip-path="url(#mx-clip-180-73-132-26-0)" font-size="12px"><text x="181.5" y="85.5">+ b(): void</text></g><g fill="#000000" font-family="Helvetica" clip-path="url(#mx-clip-180-99-132-26-0)" font-size="12px"><text x="181.5" y="111.5">+ c(): void</text></g><path d="M 336 42 L 336 16 L 476 16 L 476 42" fill="none" stroke="#000000" stroke-miterlimit="10" pointer-events="none"/><path d="M 336 42 L 336 120 L 476 120 L 476 42" fill="none" stroke="#000000" stroke-miterlimit="10" pointer-events="none"/><path d="M 336 42 L 476 42" fill="none" stroke="#000000" stroke-miterlimit="10" pointer-events="none"/><g fill="#000000" font-family="Helvetica" text-anchor="middle" font-size="12px"><text x="405.5" y="33.5">Base3</text></g><g fill="#000000" font-family="Helvetica" clip-path="url(#mx-clip-340-47-132-26-0)" font-size="12px"><text x="341.5" y="59.5">+ a(): void</text></g><g fill="#000000" font-family="Helvetica" clip-path="url(#mx-clip-340-73-132-26-0)" font-size="12px"><text x="341.5" y="85.5">+ b(): void</text></g><g fill="#000000" font-family="Helvetica" clip-path="url(#mx-clip-340-99-132-26-0)" font-size="12px"><text x="341.5" y="111.5">+ c(): void</text></g></g></svg>